<?xml version="1.0" encoding="UTF-8"?>
<svg id="Layer_2" data-name="Layer 2" xmlns="http://www.w3.org/2000/svg" viewBox="0 0 293 273">
  <defs>
    <style>
      .cls-1 {
        fill: #ffb600;
      }

      .cls-2 {
        fill: #fff;
      }
    </style>
  </defs>
  <g id="Capa_1" data-name="Capa 1">
    <g>
      <rect class="cls-1" width="293" height="273" rx="41.47" ry="41.47"/>
      <path class="cls-2" d="M228.68,158.8c.95,3.23.43,6.31-1.56,9.14-1.9,2.72-4.44,4.47-7.55,5.2-7.52,1.69-15.13,3.09-22.63,4.16-6.85.98-13.85,1.78-20.85,2.37v34.69c0,3.17-1.1,5.87-3.25,8.03-2.16,2.16-4.86,3.25-8.03,3.25h-36.64c-3.17,0-5.87-1.1-8.03-3.25-2.16-2.16-3.26-4.86-3.26-8.03v-34.68c-7.14-.6-14.22-1.4-21.08-2.38-7.5-1.07-15.11-2.47-22.61-4.15-3.14-.74-5.66-2.5-7.48-5.24-1.88-2.83-2.36-5.89-1.42-9.1.93-3.16,2.87-5.52,5.76-7.01,2.81-1.45,5.81-1.82,8.9-1.1,10.99,2.56,22.25,4.31,33.46,5.22,22.52,1.81,45.61,1.81,68.13,0,11.22-.9,22.47-2.66,33.47-5.22,3.26-.73,6.3-.35,9.04,1.11,2.8,1.49,4.69,3.85,5.62,7ZM146.5,152.36c5.59,0,10.44-1.98,14.42-5.87,3.99-3.91,6.02-8.81,6.02-14.57s-2.02-10.46-6-14.44c-3.98-3.98-8.84-6-14.44-6s-10.66,2.02-14.57,6.02c-3.9,3.98-5.87,8.83-5.87,14.42s1.98,10.65,5.89,14.55c3.91,3.91,8.8,5.89,14.55,5.89ZM77.8,124.88c4.37,0,8.14-1.51,11.21-4.49,3.09-3,4.65-6.82,4.65-11.37s-1.56-8.16-4.63-11.23c-3.07-3.07-6.85-4.63-11.23-4.63s-8.37,1.56-11.37,4.65c-2.98,3.07-4.49,6.84-4.49,11.21s1.52,8.35,4.51,11.35c2.99,3,6.81,4.51,11.35,4.51ZM199.34,109.02c0,4.53,1.52,8.35,4.52,11.35,2.99,3,6.81,4.51,11.35,4.51s8.14-1.51,11.21-4.49c3.09-3,4.65-6.82,4.65-11.37s-1.56-8.16-4.63-11.23c-3.07-3.07-6.85-4.63-11.23-4.63s-8.37,1.56-11.37,4.65c-2.98,3.07-4.49,6.84-4.49,11.21ZM102.99,90.53c4.37,0,8.14-1.51,11.21-4.49,3.09-3,4.65-6.82,4.65-11.37s-1.56-8.16-4.63-11.23c-3.07-3.07-6.85-4.63-11.23-4.63s-8.37,1.56-11.37,4.65c-2.98,3.07-4.49,6.84-4.49,11.21s1.52,8.35,4.51,11.35c3,3,6.81,4.51,11.35,4.51ZM190.01,90.53c4.37,0,8.14-1.51,11.21-4.49,3.09-3,4.65-6.82,4.65-11.37s-1.56-8.16-4.63-11.23c-3.07-3.07-6.85-4.63-11.23-4.63s-8.37,1.56-11.37,4.65c-2.98,3.07-4.49,6.84-4.49,11.21s1.52,8.35,4.52,11.35c3,3,6.81,4.51,11.35,4.51ZM146.5,79.08c4.37,0,8.14-1.51,11.21-4.49,3.09-3,4.65-6.82,4.65-11.37s-1.56-8.16-4.63-11.23c-3.07-3.07-6.85-4.63-11.23-4.63s-8.37,1.56-11.37,4.65c-2.98,3.07-4.49,6.84-4.49,11.21s1.52,8.35,4.51,11.35c3,3,6.81,4.51,11.35,4.51Z"/>
    </g>
  </g>
</svg>
