<?xml version="1.0" encoding="UTF-8"?>
<svg id="Layer_2" data-name="Layer 2" xmlns="http://www.w3.org/2000/svg" viewBox="0 0 325.29 322.88">
  <defs>
    <style>
      .cls-1 {
        fill: #1567f9;
      }

      .cls-2 {
        fill: #ffb600;
      }

      .cls-3 {
        fill: #fff;
      }

      .cls-4 {
        fill: #f60;
      }

      .cls-5 {
        fill: #00bf91;
      }
    </style>
  </defs>
  <g id="Capa_1" data-name="Capa 1">
    <g>
      <g id="Capa_1-2" data-name="Capa 1">
        <g>
          <rect class="cls-2" x="19.28" y="107.27" width="108.1" height="108.1" rx="7.51" ry="7.51" transform="translate(-92.59 99.1) rotate(-45)"/>
          <rect class="cls-4" x="107.43" y="19.28" width="108.1" height="108.1" rx="7.51" ry="7.51" transform="translate(-4.56 135.66) rotate(-45)"/>
          <rect class="cls-1" x="197.91" y="105.58" width="108.1" height="108.1" rx="7.51" ry="7.51" transform="translate(-39.08 224.92) rotate(-45)"/>
          <rect class="cls-5" x="107.42" y="195.5" width="108.1" height="108.1" rx="7.51" ry="7.51" transform="translate(-129.17 187.27) rotate(-45)"/>
          <path class="cls-3" d="M103.62,169.7c.35,1.19.16,2.33-.57,3.37-.7,1-1.64,1.65-2.78,1.92-2.77.62-5.58,1.14-8.34,1.53-2.52.36-5.11.65-7.69.87v12.79c0,1.17-.4,2.16-1.2,2.96-.8.8-1.79,1.2-2.96,1.2h-13.51c-1.17,0-2.16-.4-2.96-1.2-.8-.8-1.2-1.79-1.2-2.96v-12.79c-2.63-.22-5.24-.51-7.77-.88-2.77-.4-5.57-.91-8.34-1.53-1.16-.27-2.09-.92-2.76-1.93s-.87-2.17-.52-3.36c.34-1.17,1.06-2.04,2.12-2.59,1.04-.54,2.14-.67,3.28-.4,4.05.94,8.2,1.59,12.34,1.92,8.31.67,16.82.67,25.12,0,4.14-.33,8.29-.98,12.34-1.92,1.2-.27,2.32-.13,3.33.41,1.03.55,1.73,1.42,2.07,2.58h0ZM73.32,167.33c2.06,0,3.85-.73,5.32-2.16,1.47-1.44,2.22-3.25,2.22-5.37s-.74-3.86-2.21-5.32c-1.47-1.47-3.26-2.21-5.32-2.21s-3.93.75-5.37,2.22-2.16,3.26-2.16,5.32.73,3.93,2.17,5.37c1.44,1.44,3.25,2.17,5.37,2.17l-.02-.02ZM47.99,157.2c1.61,0,3-.56,4.13-1.66,1.14-1.11,1.71-2.52,1.71-4.19s-.57-3.01-1.71-4.14c-1.13-1.13-2.53-1.71-4.14-1.71s-3.09.58-4.19,1.71-1.66,2.52-1.66,4.13.56,3.08,1.66,4.18c1.1,1.1,2.51,1.66,4.18,1.66l.02.02ZM92.8,151.35c0,1.67.56,3.08,1.66,4.18,1.1,1.1,2.51,1.66,4.18,1.66s3-.56,4.13-1.66c1.14-1.11,1.71-2.52,1.71-4.19s-.57-3.01-1.71-4.14-2.53-1.71-4.14-1.71-3.09.58-4.19,1.71c-1.1,1.13-1.66,2.52-1.66,4.13l.02.02ZM57.28,144.53c1.61,0,3-.56,4.13-1.66,1.14-1.11,1.71-2.52,1.71-4.19s-.57-3.01-1.71-4.14c-1.13-1.13-2.53-1.71-4.14-1.71s-3.09.58-4.19,1.71-1.66,2.52-1.66,4.13.56,3.08,1.66,4.18c1.1,1.1,2.51,1.66,4.18,1.66l.02.02ZM89.36,144.53c1.61,0,3-.56,4.13-1.66,1.14-1.11,1.71-2.52,1.71-4.19s-.57-3.01-1.71-4.14c-1.13-1.13-2.53-1.71-4.14-1.71s-3.09.58-4.19,1.71c-1.1,1.13-1.66,2.52-1.66,4.13s.56,3.08,1.66,4.18c1.1,1.1,2.51,1.66,4.18,1.66l.02.02ZM73.32,140.31c1.61,0,3-.56,4.13-1.66,1.14-1.1,1.71-2.52,1.71-4.19s-.57-3.01-1.71-4.14c-1.13-1.13-2.53-1.71-4.14-1.71s-3.09.58-4.19,1.71c-1.1,1.13-1.66,2.52-1.66,4.13s.56,3.08,1.66,4.18c1.1,1.1,2.51,1.66,4.18,1.66l.02.02Z"/>
          <path class="cls-3" d="M161.77,57.91l-1.38-1.01c.07-.28.11-.57.11-.85s-.04-.57-.11-.85l1.38-1.01c.21-.18.35-.39.4-.64.05-.25,0-.5-.13-.74l-1.17-2.02c-.14-.25-.34-.41-.58-.48-.25-.07-.5-.05-.74.05l-1.59.69c-.18-.18-.38-.34-.61-.48s-.49-.27-.77-.37l-.21-1.7c-.04-.28-.15-.51-.35-.69s-.43-.27-.72-.27h-2.34c-.28,0-.52.09-.72.27s-.31.41-.35.69l-.21,1.7c-.28.11-.54.23-.77.37-.23.14-.43.3-.61.48l-1.59-.69c-.25-.11-.5-.12-.74-.05-.25.07-.44.23-.58.48l-1.17,2.02c-.14.25-.19.5-.13.74.05.25.19.46.4.64l1.38,1.01c-.07.28-.11.57-.11.85s.04.57.11.85l-1.38,1.01c-.21.18-.35.39-.4.64-.05.25,0,.5.13.74l1.17,2.02c.14.25.34.41.58.48.25.07.5.05.74-.05l1.59-.69c.18.18.38.34.61.48s.49.27.77.37l.21,1.7c.04.28.15.51.35.69s.43.27.72.27h2.34c.28,0,.52-.09.72-.27s.31-.41.35-.69l.21-1.7c.28-.11.54-.23.77-.37.23-.14.43-.3.61-.48l1.59.69c.25.11.5.12.74.05.25-.07.44-.23.58-.48l1.17-2.02c.14-.25.19-.5.13-.74-.05-.25-.19-.46-.4-.64ZM156.38,58.3c-.62.62-1.37.93-2.26.93s-1.64-.31-2.26-.93-.93-1.37-.93-2.26.31-1.64.93-2.26,1.37-.93,2.26-.93,1.64.31,2.26.93.93,1.37.93,2.26-.31,1.64-.93,2.26ZM141.33,87.64c-3.54-3.23-6.3-6.94-8.25-11.12-1.96-4.18-2.94-8.53-2.94-13.04,0-8.8,3.08-16.28,9.25-22.44,6.17-6.16,13.65-9.24,22.46-9.24,7.25,0,13.72,2.17,19.44,6.5,5.71,4.33,9.42,9.95,11.13,16.85l4.36,17.21c.28,1.06.08,2.03-.59,2.9s-1.57,1.3-2.7,1.3h-7.39v11.91c0,1.85-.66,3.44-1.98,4.76s-2.91,1.98-4.76,1.98h-8.18v4.66c0,.79-.27,1.46-.8,1.99-.54.54-1.2.8-1.99.8s-1.46-.27-1.99-.8c-.54-.54-.8-1.2-.8-1.99v-6.87c0-.97.32-1.78.97-2.42s1.45-.97,2.4-.97h10.4c.34,0,.61-.11.83-.32s.32-.49.32-.83v-14.13c0-.95.32-1.76.97-2.4.65-.65,1.45-.97,2.4-.97h6.7l-3.54-14.46c-1.43-5.68-4.49-10.29-9.17-13.82-4.69-3.53-10.02-5.3-16.01-5.3-7.21,0-13.37,2.52-18.47,7.56s-7.65,11.18-7.65,18.4c0,3.72.76,7.26,2.28,10.61s3.68,6.33,6.48,8.94l2.42,2.23v14.74c0,.79-.27,1.46-.8,1.99-.54.54-1.2.8-1.99.8s-1.46-.27-1.99-.8c-.54-.54-.8-1.2-.8-1.99v-12.24l-.02.02ZM175.6,64.88c-.97-.97-2.19-1.46-3.63-1.46-.81,0-1.58.17-2.3.52-.54.26-1.02.59-1.44.99-.42-.4-.9-.73-1.44-.99-.72-.34-1.49-.52-2.3-.52-1.44,0-2.66.49-3.63,1.46-.97.97-1.46,2.19-1.46,3.63,0,1.72.64,3.31,1.91,4.72,1.19,1.33,2.54,2.69,4.02,4.04l1.42,1.29c.21.21.45.36.73.46.25.09.51.13.76.13s.51-.04.76-.13c.28-.09.52-.25.71-.44l1.41-1.29c1.5-1.35,2.87-2.71,4.05-4.05,1.26-1.42,1.9-3.01,1.9-4.73,0-1.44-.49-2.66-1.46-3.63h0Z"/>
          <path class="cls-3" d="M188.75,242.57c-.19.52-.51.96-.97,1.31-.49.37-1.07.54-1.68.5-.48-.03-1.16-.24-1.74-1.04-2.7-3.82-6.2-6.77-10.4-8.79-4.22-2.03-8.76-3.05-13.5-3.05h0c-4.71,0-9.2,1.04-13.35,3.08-4.14,2.04-7.62,4.99-10.35,8.77-.58.84-1.28,1.08-1.76,1.12h-.22c-.56,0-1.08-.18-1.52-.54-.49-.37-.81-.88-.92-1.45-.08-.43-.07-1.09.45-1.83,3.25-4.39,7.34-7.85,12.16-10.31,4.82-2.45,10.04-3.7,15.5-3.7h0c5.48,0,10.73,1.2,15.59,3.56,4.88,2.37,9,5.82,12.26,10.28.68.85.62,1.61.44,2.09h.01ZM142.25,228.47c.23.07.46.1.68.1.41,0,.8-.11,1.17-.33,2.54-1.37,5.21-2.42,7.95-3.11,2.75-.7,5.59-1.05,8.45-1.05h0c2.91,0,5.79.35,8.57,1.05,2.79.7,5.5,1.75,8.08,3.13.92.48,1.64.31,2.09.08.55-.28.97-.72,1.2-1.27.22-.52.27-1.06.16-1.6-.09-.45-.39-1.09-1.32-1.59-2.92-1.5-5.98-2.66-9.1-3.46-3.13-.8-6.38-1.21-9.67-1.21h0c-3.26,0-6.52.42-9.67,1.23-3.15.82-6.21,2.03-9.09,3.6-.02,0-.03.02-.05.03-.74.46-1.01,1.04-1.11,1.44-.13.55-.06,1.11.21,1.69.3.63.8,1.06,1.45,1.26h0ZM149.41,268.46c-1.35-2.7-2.04-6.07-2.04-10.01,0-3.54,1.26-6.43,3.85-8.83,2.62-2.42,5.66-3.6,9.29-3.6h0c3.63,0,6.69,1.18,9.34,3.6,2.62,2.4,3.9,5.29,3.9,8.83,0,.71.27,1.33.77,1.78.47.42,1.04.65,1.66.65.69,0,1.29-.24,1.74-.69.45-.45.69-1.05.69-1.74,0-4.85-1.8-9-5.35-12.31-3.53-3.3-7.81-4.97-12.74-4.97h0c-4.92,0-9.2,1.68-12.7,4.98-3.52,3.32-5.3,7.46-5.3,12.31,0,4.56.85,8.59,2.52,12,1.64,3.35,3.99,6.66,7,9.84.48.48,1.06.73,1.69.73h.07c.63-.02,1.21-.27,1.67-.73.42-.43.67-.97.72-1.58.04-.47-.05-1.17-.7-1.83-2.65-2.83-4.69-5.66-6.07-8.42h-.01ZM178.68,240.84c-5.06-4.69-11.19-7.07-18.22-7.07h0c-6.99,0-13.08,2.38-18.11,7.08-5.06,4.71-7.62,10.64-7.62,17.6,0,2.09.18,4.15.53,6.13.35,1.99.93,4.05,1.72,6.12.23.63.66,1.11,1.25,1.39.61.29,1.28.31,1.93.03.61-.25,1.07-.67,1.33-1.22.19-.39.36-1.03.07-1.88-.81-2.35-1.35-4.43-1.6-6.18-.25-1.77-.38-3.27-.38-4.44,0-5.61,2.01-10.2,6.14-14.06,4.1-3.82,9.07-5.76,14.78-5.76h0c5.71,0,10.7,1.93,14.81,5.75,4.15,3.85,6.16,8.46,6.16,14.11,0,1.41-.5,2.56-1.54,3.53-1.05.99-2.29,1.47-3.78,1.47h0c-1.5,0-2.76-.48-3.86-1.48-1.07-.96-1.59-2.12-1.59-3.52,0-2.79-1.01-5.16-3.01-7.04-1.98-1.87-4.4-2.82-7.19-2.82h0c-2.79,0-5.22.95-7.22,2.81-2.02,1.89-3.05,4.26-3.04,7.05,0,5.86,1.76,10.9,5.24,14.97,3.45,4.05,7.93,6.79,13.32,8.16.22.05.43.07.62.07.65,0,1.1-.26,1.39-.52.41-.36.7-.8.87-1.34.17-.61.13-1.21-.13-1.76-.19-.41-.6-.95-1.51-1.25-4.38-1.25-8.01-3.48-10.8-6.63-2.75-3.1-4.14-7.04-4.15-11.71,0-1.41.51-2.57,1.56-3.53,1.08-.99,2.34-1.47,3.84-1.47h0c1.49,0,2.73.48,3.8,1.47,1.04.97,1.55,2.12,1.55,3.53,0,2.79,1.04,5.16,3.08,7.03,2.01,1.85,4.45,2.78,7.24,2.78h0c2.8,0,5.22-.94,7.18-2.8,1.98-1.87,2.98-4.23,2.98-7.02,0-6.96-2.58-12.88-7.66-17.6l.02.02ZM180.32,270.58c-.36-.25-.97-.51-1.78-.34-.55.1-1.1.17-1.63.22-.52.05-.97.08-1.34.07-3.45,0-6.38-1.12-8.96-3.42-2.54-2.27-3.77-5.1-3.77-8.66,0-.63-.23-1.21-.66-1.68-.46-.49-1.07-.75-1.77-.75h0c-.71,0-1.32.26-1.77.76-.43.47-.65,1.05-.65,1.67,0,4.85,1.78,8.94,5.28,12.14,3.47,3.18,7.62,4.79,12.31,4.79h0c.36,0,.87-.03,1.57-.09.72-.06,1.49-.2,2.3-.41.57-.16,1.05-.46,1.43-.88.48-.54.63-1.24.43-1.92-.17-.66-.5-1.17-.99-1.51h0Z"/>
        </g>
      </g>
      <path class="cls-3" d="M243.99,189.69c-2.83,0-5.26-.98-7.3-2.94-2.04-1.96-3.16-4.34-3.36-7.13-3.25-.49-5.95-1.98-8.11-4.46-2.16-2.48-3.24-5.38-3.24-8.71,0-1.16.15-2.31.45-3.45.3-1.14.75-2.2,1.36-3.2-.72-1.04-1.26-2.17-1.61-3.38-.36-1.21-.54-2.48-.54-3.81,0-3.4,1.12-6.34,3.36-8.82,2.24-2.48,5.01-3.92,8.31-4.33-.02-.09-.03-.18-.03-.27v-.31c.11-2.85,1.2-5.26,3.27-7.24,2.07-1.97,4.56-2.96,7.44-2.96,1.63,0,3.08.32,4.35.95,1.27.64,2.48,1.53,3.62,2.7,1.13-1.16,2.33-2.06,3.6-2.7,1.27-.64,2.73-.95,4.37-.95,2.86,0,5.32.98,7.38,2.95,2.06,1.96,3.14,4.36,3.25,7.19v.31c0,.09-.01.18-.03.27,3.3.4,6.09,1.85,8.35,4.34,2.27,2.49,3.4,5.44,3.4,8.86,0,1.33-.19,2.6-.56,3.81-.37,1.21-.91,2.34-1.63,3.38.6,1,1.06,2.06,1.38,3.2.31,1.14.47,2.29.47,3.45,0,3.39-1.09,6.31-3.26,8.77-2.18,2.46-4.9,3.92-8.17,4.39-.2,2.79-1.31,5.17-3.32,7.13-2.01,1.96-4.43,2.94-7.26,2.94-1.64,0-3.09-.31-4.36-.93-1.27-.62-2.48-1.52-3.61-2.71-1.17,1.19-2.38,2.09-3.65,2.71-1.27.62-2.71.93-4.32.93ZM254.62,139.34v39.72c0,1.49.52,2.75,1.55,3.77,1.03,1.03,2.29,1.54,3.78,1.54,1.42,0,2.64-.53,3.65-1.59,1.02-1.06,1.56-2.29,1.65-3.7-1.49-.31-2.87-.88-4.13-1.7-1.26-.82-2.35-1.87-3.27-3.15-.45-.62-.63-1.28-.51-1.99s.48-1.27,1.11-1.71c.62-.45,1.29-.63,2-.51.71.11,1.29.48,1.73,1.11.73,1.07,1.67,1.88,2.8,2.45,1.13.57,2.36.85,3.68.85,2.22,0,4.11-.77,5.65-2.32,1.55-1.55,2.32-3.43,2.32-5.65,0-.45-.04-.89-.13-1.34-.09-.45-.22-.89-.41-1.32-1,.68-2.11,1.2-3.32,1.57-1.21.36-2.47.54-3.77.54-.75,0-1.38-.25-1.89-.76-.51-.51-.76-1.14-.76-1.89s.25-1.38.76-1.89c.51-.51,1.14-.76,1.89-.76,2.22,0,4.11-.77,5.65-2.32,1.55-1.55,2.32-3.43,2.32-5.65s-.76-4.04-2.29-5.56c-1.52-1.52-3.37-2.33-5.55-2.41-.6,1.09-1.4,2.03-2.39,2.84-.99.81-2.09,1.45-3.31,1.92-.7.26-1.37.24-2.04-.07-.66-.31-1.1-.81-1.32-1.51-.23-.7-.2-1.38.08-2.05.28-.67.78-1.12,1.5-1.35,1.07-.36,1.93-1.01,2.6-1.94.66-.93.99-1.99.99-3.19,0-1.48-.51-2.73-1.54-3.76-1.03-1.03-2.29-1.54-3.77-1.54-1.49,0-2.75.51-3.77,1.54-1.03,1.03-1.54,2.29-1.54,3.77ZM249.3,179.06v-39.72c0-1.49-.51-2.75-1.54-3.77-1.03-1.03-2.29-1.54-3.77-1.54-1.49,0-2.75.51-3.77,1.54-1.03,1.03-1.54,2.29-1.54,3.77,0,1.15.32,2.2.97,3.14.65.94,1.5,1.6,2.57,1.96.7.23,1.2.67,1.53,1.33s.37,1.34.15,2.04c-.27.7-.74,1.2-1.41,1.51-.67.31-1.36.33-2.08.06-1.22-.47-2.32-1.11-3.31-1.9-.99-.8-1.78-1.74-2.39-2.82-2.12.08-3.94.9-5.46,2.44-1.52,1.55-2.29,3.39-2.29,5.54,0,2.21.77,4.09,2.32,5.64,1.55,1.55,3.43,2.32,5.65,2.32.75,0,1.38.25,1.89.76.51.51.76,1.14.76,1.89s-.25,1.38-.76,1.89c-.51.51-1.14.76-1.89.76-1.3,0-2.56-.18-3.77-.54-1.21-.36-2.32-.89-3.32-1.57-.19.43-.32.87-.41,1.32-.09.45-.13.89-.13,1.34,0,2.22.77,4.11,2.32,5.65,1.55,1.55,3.43,2.32,5.65,2.32,1.32,0,2.55-.28,3.67-.85,1.13-.57,2.06-1.38,2.8-2.44.44-.63,1.02-.99,1.73-1.11.71-.11,1.38.05,2,.5.62.44.99,1.02,1.1,1.72.11.71-.06,1.37-.51,1.99-.94,1.28-2.05,2.34-3.33,3.18-1.28.84-2.66,1.41-4.15,1.73.08,1.41.64,2.63,1.69,3.67,1.04,1.04,2.28,1.56,3.7,1.56,1.49,0,2.75-.51,3.78-1.54s1.55-2.29,1.55-3.77Z"/>
    </g>
  </g>
</svg>
