<?xml version="1.0" encoding="UTF-8"?>
<svg id="Layer_2" data-name="Layer 2" xmlns="http://www.w3.org/2000/svg" viewBox="0 0 293 273">
  <defs>
    <style>
      .cls-1 {
        fill: #0054ce;
      }

      .cls-2 {
        fill: #044ba0;
      }

      .cls-3 {
        fill: #1567f9;
      }

      .cls-4 {
        fill: #108ff9;
      }

      .cls-5, .cls-6 {
        fill: #fff;
      }

      .cls-6 {
        stroke: #fff;
        stroke-miterlimit: 10;
      }
    </style>
  </defs>
  <g id="Capa_1" data-name="Capa 1">
    <g>
      <path class="cls-3" d="M40.92,0h105.58v136.5H0V40.92C0,18.33,18.33,0,40.92,0Z"/>
      <path class="cls-4" d="M146.5,0h146.5v136.5h-105.58c-22.58,0-40.92-18.33-40.92-40.92V0h0Z" transform="translate(439.5 136.5) rotate(-180)"/>
      <path class="cls-2" d="M187.42,136.5h105.58v136.5h-146.5v-95.58c0-22.58,18.33-40.92,40.92-40.92Z" transform="translate(439.5 409.5) rotate(180)"/>
      <path class="cls-1" d="M0,136.5h146.5v136.5H40.92C18.33,273,0,254.67,0,232.08v-95.58H0Z"/>
      <path class="cls-5" d="M73.26,89.21c5.83,0,10.77-2.04,14.84-6.12,4.07-4.08,6.1-9.03,6.1-14.85s-2.04-10.77-6.12-14.84c-4.08-4.07-9.03-6.1-14.85-6.1s-10.77,2.04-14.84,6.12c-4.07,4.08-6.1,9.03-6.1,14.85s2.04,10.77,6.12,14.84c4.08,4.07,9.03,6.1,14.85,6.1ZM73.25,82.13c-3.86,0-7.13-1.35-9.83-4.05s-4.05-5.98-4.05-9.83,1.35-7.13,4.05-9.83,5.98-4.05,9.83-4.05,7.13,1.35,9.83,4.05,4.05,5.98,4.05,9.83-1.35,7.13-4.05,9.83-5.98,4.05-9.83,4.05ZM73.26,104.24c-11.82,0-22.59-3.26-32.31-9.78-8.52-5.71-15.07-13.13-19.65-22.24-1.25-2.48-1.25-5.44,0-7.93,4.58-9.11,11.13-16.53,19.64-22.24,9.72-6.52,20.49-9.78,32.31-9.78s22.59,3.26,32.31,9.78c8.52,5.71,15.07,13.13,19.65,22.24,1.25,2.48,1.25,5.44,0,7.93-4.58,9.11-11.13,16.53-19.64,22.24-9.72,6.52-20.49,9.78-32.31,9.78ZM73.25,96.53c9.68,0,18.57-2.55,26.67-7.65,6.53-4.11,11.83-9.39,15.88-15.82,1.85-2.93,1.85-6.69,0-9.63-4.05-6.43-9.34-11.7-15.88-15.82-8.1-5.1-16.99-7.65-26.67-7.65s-18.57,2.55-26.67,7.65c-6.53,4.11-11.83,9.39-15.88,15.82-1.85,2.93-1.85,6.69,0,9.63,4.05,6.43,9.34,11.7,15.88,15.82,8.1,5.1,16.99,7.65,26.67,7.65Z"/>
      <path class="cls-6" d="M198.74,109.64c4.01,0,7.33-1.06,9.94-3.19,2.61-2.13,4.63-5.19,6.06-9.2,1.13-3.26,2.3-5.66,3.51-7.2,1.21-1.54,3.73-3.82,7.57-6.85,4.25-3.42,7.58-7.27,9.97-11.56,2.39-4.28,3.59-9.34,3.59-15.16,0-8-2.69-14.69-8.07-20.07-5.38-5.38-12.07-8.07-20.07-8.07s-14.42,2.58-19.75,7.73c-4.49,4.34-7.16,9.61-8.02,15.81-.26,1.88,1.21,3.56,3.11,3.56h0c1.53,0,2.87-1.11,3.08-2.63.68-4.83,2.79-8.93,6.33-12.29,4.16-3.96,9.24-5.93,15.25-5.93s11.36,2.1,15.57,6.31c4.21,4.21,6.31,9.4,6.31,15.57,0,4.83-1.02,9.04-3.07,12.63-2.05,3.59-4.83,6.72-8.33,9.38-3.45,2.56-6.13,5.02-8.02,7.37-1.89,2.35-3.4,5.07-4.5,8.15-1.08,3.08-2.38,5.42-3.91,7-1.53,1.58-3.71,2.37-6.56,2.37-2.37,0-4.44-.8-6.21-2.41-1.2-1.1-2.05-2.36-2.55-3.8-.44-1.27-1.61-2.13-2.95-2.13h-.09c-2.16,0-3.65,2.13-2.96,4.17.79,2.32,2.13,4.38,4.04,6.19,2.99,2.82,6.56,4.24,10.72,4.24ZM241.32,85.02c1.31,1.25,3.42,1.15,4.56-.25,2.78-3.4,5.07-7.21,6.84-11.42,2.22-5.27,3.34-10.89,3.34-16.87,0-6.02-1.11-11.69-3.34-17-1.78-4.25-4.06-8.08-6.84-11.49-1.14-1.4-3.25-1.5-4.56-.25h0c-1.19,1.14-1.28,2.99-.24,4.26,2.44,3,4.4,6.3,5.91,9.92,1.88,4.52,2.82,9.38,2.82,14.56,0,5.09-.94,9.88-2.82,14.39-1.5,3.61-3.48,6.91-5.92,9.9-1.03,1.27-.94,3.11.25,4.24h0Z"/>
      <path class="cls-5" d="M47.52,254.51c-3.25,0-6.03-1.09-8.36-3.27-2.33-2.18-3.49-4.87-3.49-8.09v-68.42c0-2.89.93-5.44,2.8-7.68,1.87-2.23,4.24-3.65,7.13-4.26l37.51-7.65c4.77-.97,9.23,2.67,9.23,7.54v61.04c0,3.64-2.56,6.79-6.13,7.53l-39.82,8.29c-.88.2-1.64.63-2.27,1.29-.63.66-.94,1.43-.94,2.31,0,1.11.43,2.03,1.3,2.75.86.72,1.88,1.08,3.04,1.08h48.29c4.15,0,7.52-3.37,7.52-7.52v-68.49c0-.93.75-1.68,1.68-1.68h4.16c.93,0,1.68.75,1.68,1.68v76.01c0,4.15-3.37,7.52-7.52,7.52h-55.81ZM58.69,229.42l24.79-5.15c.78-.16,1.34-.85,1.34-1.64v-58.06c0-1.06-.97-1.86-2.02-1.65l-24.79,5.07c-.78.16-1.34.85-1.34,1.65v58.15c0,1.07.98,1.86,2.02,1.64ZM49.15,230.01v-58.16c0-1.07-.98-1.86-2.02-1.64h0c-1.14.23-2.09.76-2.83,1.58-.75.82-1.12,1.8-1.12,2.94v58.37c.51-.26,1.04-.49,1.58-.68.54-.19,1.08-.34,1.63-.46l1.44-.31c.77-.17,1.32-.85,1.32-1.64ZM43.18,170.68v62.42-62.42Z"/>
      <path class="cls-5" d="M178.67,244.21v-9.98c0-2.03.81-3.98,2.24-5.41l65.51-65.44c.8-.8,1.67-1.38,2.63-1.74.96-.37,1.91-.55,2.86-.55,1.01,0,1.98.18,2.93.55.94.37,1.77.95,2.48,1.74l6.35,6.35c.8.71,1.38,1.54,1.74,2.48.37.94.55,1.92.55,2.93,0,.95-.18,1.91-.55,2.86-.37.95-.95,1.83-1.74,2.63l-65.44,65.51c-1.43,1.44-3.38,2.24-5.41,2.24h-9.98c-2.31,0-4.19-1.87-4.19-4.19ZM191.01,240.7h0c1.1,0,2.15-.44,2.93-1.21l47.9-47.83c1.79-1.78,1.82-4.67.07-6.49h0s0,0,0,0c-1.82-1.75-4.71-1.72-6.49.07l-47.83,47.9c-.78.78-1.21,1.83-1.21,2.93h0c0,2.56,2.08,4.64,4.64,4.64ZM258.26,175.23l-6.43-6.43s6.43,6.43,6.43,6.43ZM241.9,185.17l-3.28-3.15,6.43,6.43s-3.15-3.28-3.15-3.28ZM228.14,248.4c6,0,11.57-1.47,16.7-4.4s7.69-7.03,7.69-12.28c0-3.02-.9-5.65-2.71-7.91-1.28-1.6-2.92-3.02-4.93-4.27-1.49-.92-3.42-.72-4.65.52l-.08.08c-1.69,1.69-1.38,4.5.63,5.79.69.44,1.3.9,1.84,1.39,1.48,1.34,2.21,2.81,2.21,4.4,0,2.43-1.67,4.53-5.01,6.32-3.34,1.78-7.23,2.67-11.68,2.67-1.09,0-2.01.37-2.75,1.11-.74.74-1.11,1.65-1.11,2.74s.37,2.01,1.11,2.74c.74.74,1.65,1.11,2.75,1.11ZM183.84,209.99l.11-.11c1.64-1.66,1.34-4.34-.54-5.72-.2-.15-.39-.3-.57-.45-1.07-.91-1.6-1.85-1.6-2.81,0-1.29.86-2.56,2.58-3.82,1.72-1.26,5.15-2.99,10.27-5.19,7.14-3.05,11.91-5.82,14.33-8.29,2.42-2.47,3.62-5.26,3.62-8.37,0-4.21-1.78-7.62-5.33-10.22-3.55-2.6-8.19-3.9-13.93-3.9-3.52,0-6.76.64-9.72,1.91-2.96,1.27-5.17,2.82-6.63,4.66-.71.85-1,1.79-.88,2.81.12,1.02.61,1.86,1.46,2.52,1.15.92,2.44,1.1,3.88.56.63-.24,1.17-.67,1.66-1.14,1.26-1.21,2.69-2.11,4.3-2.69,1.69-.61,3.66-.92,5.94-.92,3.77,0,6.64.64,8.61,1.91,1.97,1.27,2.95,2.78,2.95,4.51,0,1.49-.85,2.85-2.54,4.06-1.69,1.21-5.29,3.06-10.78,5.54-6.62,2.9-11.19,5.49-13.71,7.78-2.52,2.29-3.78,5.05-3.78,8.29,0,2.41.72,4.53,2.16,6.35.88,1.12,1.98,2.17,3.3,3.14,1.48,1.09,3.55.9,4.85-.4Z"/>
    </g>
  </g>
</svg>
